Coordinates
version=1
nRows=14
nColumns=24
inDegrees=yes

Units are S.I. units (second, meters, Newtons, ...)
Angles are in degrees.

endheader
time	pelvis_tilt	pelvis_list	pelvis_rotation	pelvis_tx	pelvis_ty	pelvis_tz	hip_flexion_r	hip_adduction_r	hip_rotation_r	knee_angle_r	ankle_angle_r	subtalar_angle_r	mtp_angle_r	hip_flexion_l	hip_adduction_l	hip_rotation_l	knee_angle_l	ankle_angle_l	subtalar_angle_l	mtp_angle_l	lumbar_extension	lumbar_bending	lumbar_rotation
      1.53000000	     20.95415778	     -9.35279650	      0.50384059	     -0.08656653	      0.90781280	      0.00065083	     -0.70402089	      9.74264070	     -0.85100224	    -37.74730862	     17.25091757	     -9.40274193	     16.16435248	    -31.38796588	     -5.56952500	     22.36134257	      2.10499358	     -2.82352817	    -46.40974631	     20.09811499	    -27.60238541	     10.27581719	      7.27923480
      1.53500000	     20.94499298	     -9.48931182	      0.44796419	     -0.08074183	      0.90711399	      0.00103291	     -0.60080527	     10.08688341	     -0.04811934	    -35.84829038	     16.84508910	    -10.26267442	     16.27483562	    -31.84767018	     -5.65707919	     22.06162244	      2.12841706	     -2.14338961	    -45.90345339	     20.08175973	    -27.61149691	     10.41526022	      7.31307169
      1.54000000	     21.00876575	     -9.59308986	      0.45342691	     -0.07498429	      0.90647027	      0.00130499	     -0.63919044	     10.37840367	      0.74422007	    -33.82408668	     16.49256854	    -11.13700349	     16.36850186	    -32.35001795	     -5.72369758	     21.79192932	      2.10906561	     -1.63372869	    -45.59714164	     20.04248248	    -27.69590910	     10.54497857	      7.29088907
      1.54500000	     21.03952799	     -9.67513653	      0.47493641	     -0.06928573	      0.90576062	      0.00156298	     -0.68504297	     10.63530183	      1.58012284	    -31.71317606	     16.03408468	    -12.06224235	     16.50626827	    -32.79306500	     -5.77985585	     21.58053440	      2.06056622	     -1.09260786	    -45.23623503	     20.00899192	    -27.74636657	     10.65928373	      7.27398605
      1.55000000	     21.11105556	     -9.76006615	      0.54704541	     -0.06358684	      0.90506580	      0.00170668	     -0.83418198	     10.85512199	      2.36524259	    -29.49345787	     15.52434225	    -12.72832108	     16.57414893	    -33.29090820	     -5.86419105	     21.40589166	      2.06342046	     -0.71549633	    -45.02021308	     19.99084407	    -27.83377774	     10.80490847	      7.21558058
      1.55500000	     21.05552889	     -9.75584055	      0.56239659	     -0.05804760	      0.90418477	      0.00198341	     -0.87238965	     11.00358998	      3.38159456	    -27.22292698	     14.85523128	    -14.08791014	     16.91697335	    -33.56331937	     -5.82776281	     21.24881088	      1.88355217	      0.05799759	    -44.44711545	     19.96771748	    -27.80223389	     10.83445677	      7.16690164
      1.56000000	     21.08550693	     -9.75354182	      0.67100815	     -0.05250506	      0.90337635	      0.00209884	     -1.07796888	     11.10441087	      4.30226089	    -24.80703121	     14.10987531	    -15.14386921	     17.36244626	    -33.93202809	     -5.84040993	     21.15146398	      1.75269408	      0.67045509	    -43.98501145	     19.89626212	    -27.84793840	     10.90520357	      7.03391138
      1.56500000	     21.12250079	     -9.72587640	      0.78221794	     -0.04693268	      0.90255061	      0.00218426	     -1.35487182	     11.13746928	      5.24144705	    -22.27828256	     13.15270995	    -16.25620355	     19.85521388	    -34.26249630	     -5.81273426	     20.89133605	      1.50042684	      1.73123814	    -42.81088981	     19.38366421	    -27.89436436	     10.95741187	      6.89894173
      1.57000000	     21.10252168	     -9.62461498	      0.93576778	     -0.04155259	      0.90158775	      0.00218149	     -1.58749453	     11.07280449	      6.23410500	    -19.72561976	     12.23904148	    -17.39963832	     19.98211085	    -34.54000810	     -5.75812545	     21.07024996	      1.37027383	      1.96604428	    -42.97239230	     19.23744254	    -27.89146875	     10.95704408	      6.69925973
      1.57500000	     21.08119928	     -9.48437051	      1.09360777	     -0.03616361	      0.90058331	      0.00216425	     -1.87892797	     10.92952069	      7.28227835	    -17.08197301	     11.18567256	    -18.58480689	     20.37651255	    -34.78184148	     -5.65953753	     21.17073672	      1.16087219	      2.41950798	    -42.77589258	     19.18081449	    -27.88002096	     10.92238540	      6.48313388
      1.58000000	     21.05257251	     -9.29267211	      1.26375967	     -0.03079038	      0.89952743	      0.00210789	     -2.20718248	     10.68816125	      8.32967045	    -14.38469677	      9.99283433	    -19.81457762	     21.05685707	    -34.98802763	     -5.51341032	     21.30233704	      0.90167882	      2.93588337	    -42.50532224	     19.13387191	    -27.85666968	     10.84413644	      6.23276476
      1.58500000	     21.00700863	     -9.03140938	      1.45262248	     -0.02545170	      0.89838253	      0.00200333	     -2.54990300	     10.33180218	      9.39752392	    -11.66736794	      8.66614641	    -21.14233937	     22.14282574	    -35.13328169	     -5.29922731	     21.45265344	      0.56885973	      3.48614744	    -42.26663368	     19.06338764	    -27.81306971	     10.70569902	      5.90853275
      1.59000000	     20.93091419	     -8.71057242	      1.68851913	     -0.02006692	      0.89714824	      0.00177928	     -2.87566848	      9.85668804	     10.29895996	     -8.96113304	      7.03004380	    -22.56036191	     26.80432496	    -35.23792840	     -5.06041782	     21.75712171	      0.22987792	      4.14888071	    -41.84865089	     18.62963194	    -27.71966093	     10.53716788	      5.54225312
      1.59500000	     20.86751666	     -8.32126422	      1.89273861	     -0.01478139	      0.89587379	      0.00159770	     -3.17088815	      9.28361222	     11.15954102	     -6.47541921	      5.80575461	    -23.33488452	     26.84048154	    -35.35713131	     -4.73736816	     22.12105455	     -0.08712136	      4.39965111	    -41.93170413	     18.60557421	    -27.65654993	     10.28257157	      5.17732123
